<?xml version="1.0" encoding="utf-8"?>
<!-- Generator: Adobe Illustrator 16.0.3, SVG Export Plug-In . SVG Version: 6.00 Build 0)  -->
<!DOCTYPE svg PUBLIC "-//W3C//DTD SVG 1.1//EN" "http://www.w3.org/Graphics/SVG/1.1/DTD/svg11.dtd">
<svg version="1.1" id="Layer_1" xmlns="http://www.w3.org/2000/svg" xmlns:xlink="http://www.w3.org/1999/xlink" x="0px" y="0px"
	 width="16px" height="16px" viewBox="0 0 16 16" enable-background="new 0 0 16 16" xml:space="preserve">
<path fill="#FFFFFF" d="M14.361,6.236c0.008,0.141,0.011,0.281,0.011,0.424c0,4.338-3.302,9.34-9.34,9.34
	C3.178,16,1.453,15.457,0,14.524c0.258,0.029,0.519,0.045,0.783,0.045c1.539,0,2.953-0.522,4.076-1.403
	c-1.435-0.026-2.648-0.978-3.065-2.278c0.2,0.036,0.405,0.059,0.617,0.059c0.3,0,0.59-0.041,0.864-0.115
	c-1.5-0.303-2.633-1.629-2.633-3.219c0-0.014,0-0.027,0-0.041c0.443,0.246,0.949,0.393,1.487,0.41
	C1.249,7.393,0.67,6.387,0.67,5.248c0-0.602,0.162-1.166,0.444-1.65c1.618,1.986,4.038,3.293,6.766,3.43
	c-0.056-0.24-0.085-0.49-0.085-0.748c0-1.813,1.471-3.281,3.283-3.281c0.943,0,1.797,0.398,2.396,1.035
	c0.746-0.146,1.449-0.42,2.084-0.797c-0.246,0.768-0.766,1.41-1.442,1.816C14.779,4.975,15.412,4.797,16,4.537
	C15.561,5.195,15.004,5.773,14.361,6.236z"/>
</svg>
