<?xml version="1.0" encoding="utf-8"?>
<!-- Generator: Adobe Illustrator 16.0.3, SVG Export Plug-In . SVG Version: 6.00 Build 0)  -->
<!DOCTYPE svg PUBLIC "-//W3C//DTD SVG 1.1//EN" "http://www.w3.org/Graphics/SVG/1.1/DTD/svg11.dtd">
<svg version="1.1" id="Layer_1" xmlns="http://www.w3.org/2000/svg" xmlns:xlink="http://www.w3.org/1999/xlink" x="0px" y="0px"
	 width="16px" height="16px" viewBox="0 0 16 16" enable-background="new 0 0 16 16" xml:space="preserve">
<g>
	<rect x="0.202" y="5.33" fill="#FFFFFF" width="3.431" height="10.316"/>
	<path fill="#FFFFFF" d="M1.917,3.92H1.895C0.744,3.92,0,3.127,0,2.137c0-1.012,0.768-1.783,1.939-1.783
		c1.174,0,1.896,0.771,1.918,1.783C3.857,3.127,3.113,3.92,1.917,3.92z"/>
	<path fill="#FFFFFF" d="M16,15.646h-3.43v-5.52c0-1.387-0.496-2.334-1.738-2.334c-0.946,0-1.512,0.641-1.76,1.256
		C8.981,9.27,8.959,9.574,8.959,9.885v5.762H5.53c0,0,0.044-9.35,0-10.316h3.429v1.461c0.457-0.705,1.271-1.703,3.092-1.703
		C14.307,5.088,16,6.561,16,9.73V15.646z"/>
</g>
</svg>
